<svg width="21" height="20" viewBox="0 0 21 20" fill="none" xmlns="http://www.w3.org/2000/svg">
<path d="M14.0721 9.81971C15.5956 9.00034 18.796 6.97517 18.796 4.4194C18.796 3.13733 17.7268 2.09429 16.4126 2.09429C16.2443 2.09429 16.0785 2.11754 15.915 2.15288C15.9278 1.8269 15.9359 1.49813 15.9359 1.16424C15.9359 0.907549 15.7224 0.699219 15.4593 0.699219H4.97245C4.70933 0.699219 4.49578 0.907549 4.49578 1.16424C4.49578 1.49813 4.50388 1.8269 4.51675 2.15288C4.35325 2.11754 4.18737 2.09429 4.01911 2.09429C2.70492 2.09429 1.63574 3.13733 1.63574 4.4194C1.63574 6.9747 4.8366 9.00034 6.35957 9.82018C7.03549 11.0613 7.863 11.9714 8.78584 12.4373V13.7199H5.44913C5.186 13.7199 4.97245 13.9282 4.97245 14.1849V16.51H4.49578C4.23266 16.51 4.01911 16.7183 4.01911 16.975V18.8351C4.01911 19.0918 4.23266 19.3001 4.49578 19.3001H15.9359C16.1991 19.3001 16.4126 19.0918 16.4126 18.8351V16.975C16.4126 16.7183 16.1991 16.51 15.9359 16.51H15.4593V14.1849C15.4593 13.9282 15.2457 13.7199 14.9826 13.7199H11.6459V12.4369C12.5687 11.9709 13.3962 11.0609 14.0721 9.81971ZM16.4126 3.02433C17.201 3.02433 17.8426 3.65025 17.8426 4.4194C17.8426 6.00234 16.1028 7.44391 14.7504 8.32699C15.311 6.85147 15.6981 5.08485 15.8558 3.13966C16.0332 3.06479 16.2219 3.02433 16.4126 3.02433ZM2.58909 4.4194C2.58909 3.65025 3.23069 3.02433 4.01911 3.02433C4.20978 3.02433 4.39854 3.06479 4.57634 3.13966C4.73412 5.08485 5.1207 6.85147 5.68127 8.32652C4.32894 7.44344 2.58909 6.00187 2.58909 4.4194ZM5.45389 1.62926H14.9778C14.8648 7.22116 12.7303 11.8598 10.2159 11.8598C7.70141 11.8598 5.56686 7.22116 5.45389 1.62926ZM15.4593 18.3701H4.97245V17.44H15.4593V18.3701ZM14.5059 16.51H5.9258V14.6499H14.5059V16.51ZM10.6925 13.7199H9.73918V12.7484C9.89648 12.7735 10.0552 12.7898 10.2159 12.7898C10.3765 12.7898 10.5352 12.7735 10.6925 12.7484V13.7199Z" fill="#4267B3"/>
</svg>
