<svg width="158" height="24" viewBox="0 0 158 24" fill="none" xmlns="http://www.w3.org/2000/svg">
<g clip-path="url(#clip0_345_1454)">
<path d="M27.4894 0.82428H3.57236C2.44724 0.82428 1.54492 1.71538 1.54492 2.8265V20.1534C1.54492 21.2645 2.44724 22.1556 3.57236 22.1556H27.4894C28.6145 22.1556 29.5168 21.2645 29.5168 20.1534V2.8265C29.5168 1.72638 28.6145 0.82428 27.4894 0.82428ZM15.5253 13.9267C14.1663 13.9267 13.0634 12.8376 13.0634 11.4954C13.0634 10.1533 14.1663 9.06417 15.5253 9.06417C16.8844 9.06417 17.9872 10.1533 17.9872 11.4954C17.9872 12.8376 16.8844 13.9267 15.5253 13.9267ZM5.95627 11.4954V14.4988H4.02909V8.49211H5.95627V11.4954ZM4.02909 16.424H7.90572V11.4954V6.5669H4.02909V3.45357H14.5562V7.24898C12.5956 7.68902 11.1251 9.41621 11.1251 11.4844C11.1251 13.5527 12.5956 15.2908 14.5562 15.7309V19.5263H4.02909V16.424ZM16.5056 19.5373V15.7419C18.4662 15.3018 19.9367 13.5747 19.9367 11.4954C19.9367 9.42721 18.4662 7.68902 16.5056 7.25997V3.46456H27.0327V6.5779H23.156V11.5064V16.435H27.0327V19.5483H16.5056V19.5373ZM25.1055 11.4954V8.49211H27.0327V14.4988H25.1055V11.4954Z" fill="#4267B3"/>
<mask id="mask0_345_1454" style="mask-type:luminance" maskUnits="userSpaceOnUse" x="-9" y="-15" width="177" height="53">
<path d="M167.428 -14.5312H-8.60742V37.5205H167.428V-14.5312Z" fill="white"/>
</mask>
<g mask="url(#mask0_345_1454)">
<path d="M45.8697 13.7954C45.8697 15.3906 44.5552 16.7547 41.9485 16.7547C40.5004 16.7547 39.0633 16.5127 37.7266 15.1485L38.8405 13.5534C39.4866 14.2685 40.9682 14.7965 41.9931 14.8185C42.8397 14.8405 43.6418 14.4005 43.6418 13.7404C43.6418 13.1133 43.1182 12.8603 41.826 12.7943C40.0993 12.6623 38.0496 12.0462 38.0496 9.99999C38.0496 7.90977 40.233 7.18368 41.904 7.18368C43.3299 7.18368 44.3993 7.45871 45.4576 8.37181L44.1988 9.83497C43.5527 9.22991 42.8063 9.03188 41.9374 9.03188C40.868 9.03188 40.2664 9.36192 40.2664 9.92298C40.2664 10.506 40.8011 10.8361 41.9708 10.9131C43.6752 11.0231 45.8697 11.4081 45.8697 13.7954ZM51.6624 14.5435C50.9606 14.5435 50.4816 14.1254 50.4816 13.2673V9.37292H53.0103V7.44771H50.4927V4.89544L48.2314 5.13747V7.45871H46.527V9.38392H48.2314V13.2783C48.2314 15.5226 49.5236 16.6447 51.5064 16.5677C52.186 16.5457 52.7318 16.4357 53.3779 16.1827L52.743 14.2795C52.4199 14.4445 52.0189 14.5435 51.6624 14.5435ZM61.9444 7.43671H64.1055V16.4577H61.9778L61.8664 15.1375C61.3428 16.1937 59.917 16.7107 58.9032 16.7327C56.1963 16.7547 54.2023 15.1045 54.2023 11.9362C54.2023 8.82286 56.2965 7.19468 58.9589 7.21669C60.1843 7.21669 61.3428 7.78875 61.8664 8.67985L61.9444 7.43671ZM59.1595 9.2079C57.6556 9.2079 56.4525 10.209 56.4525 11.9362C56.4525 13.6524 57.6556 14.6755 59.1595 14.6755C62.713 14.6755 62.713 9.2079 59.1595 9.2079ZM73.2401 3.6633H75.5015V16.4467H73.3961L73.2512 15.2035C72.5494 16.2817 71.4132 16.6447 70.3103 16.6447C67.6257 16.6447 65.6094 14.8845 65.6094 11.9252C65.6094 8.81186 67.5922 7.20569 70.2547 7.20569C71.2127 7.20569 72.7165 7.72274 73.2512 8.64684V3.6633H73.2401ZM73.0841 11.9362C73.0841 10.363 71.8588 9.30691 70.4329 9.30691C68.9847 9.30691 67.8373 10.308 67.8373 11.9362C67.8373 13.5094 68.9847 14.5875 70.4329 14.5875C71.8699 14.5875 73.0841 13.5644 73.0841 11.9362ZM77.4621 16.4467H79.7234V7.39271H77.4621V16.4467ZM77.2504 4.89544C77.2504 6.63363 79.9128 6.63363 79.9128 4.89544C79.924 3.15725 77.2504 3.15725 77.2504 4.89544ZM88.6018 12.0462C88.6018 13.4214 87.6549 14.5655 86.2736 14.5655C84.8254 14.5655 84.068 13.5204 84.068 12.1562V7.43671H81.8066V12.1782C81.8066 14.9725 83.3996 16.6007 85.583 16.6007C86.864 16.6007 87.7329 16.1607 88.6798 15.2476L88.8246 16.4687H90.8409V7.43671H88.6018V12.0462ZM103.273 7.3047C102.092 7.3047 101.034 7.66774 100.221 8.95488C99.697 7.71174 98.6053 7.27169 97.5136 7.27169C96.6447 7.27169 95.5865 7.60173 95.1074 8.51483L94.9404 7.41471H92.8461V16.4467H95.1074V11.6172C95.1074 10.429 95.8315 9.35092 97.0569 9.35092C98.2934 9.35092 98.9284 10.429 98.9284 11.6172V16.4467H101.19V11.6172C101.19 10.429 101.947 9.38392 103.173 9.38392C104.398 9.38392 104.899 10.385 104.899 11.5732V16.4357H107.161V11.5732C107.15 8.87787 105.868 7.3047 103.273 7.3047ZM108.832 7.43671V9.47193H113.243L108.197 16.4577H116.652V14.2574H112.318L117.298 7.43671H108.832ZM117.844 15.3026C117.844 17.0407 120.506 17.0407 120.506 15.3026C120.517 13.5644 117.844 13.5644 117.844 15.3026ZM126.421 14.5875C125.018 14.5875 123.826 13.6744 123.826 11.9582C123.826 10.385 124.94 9.28491 126.455 9.28491C127.09 9.28491 127.747 9.52694 128.293 9.99999L129.719 8.51483C128.716 7.54673 127.714 7.18368 126.421 7.18368C123.77 7.18368 121.564 8.75686 121.564 11.9582C121.564 15.1595 123.77 16.7327 126.421 16.7327C127.769 16.7327 128.883 16.3257 129.941 15.3026L128.426 13.8394C127.869 14.3785 127.145 14.5875 126.421 14.5875ZM140.201 11.9472C140.201 14.5435 138.408 16.6447 135.445 16.6447C132.481 16.6447 130.699 14.5435 130.699 11.9472C130.699 9.37292 132.515 7.24969 135.422 7.24969C138.33 7.24969 140.201 9.37292 140.201 11.9472ZM137.929 11.9472C137.929 10.594 136.971 9.27391 135.445 9.27391C133.818 9.27391 132.96 10.594 132.96 11.9472C132.96 13.3223 133.796 14.5985 135.445 14.5985C137.093 14.5985 137.929 13.3223 137.929 11.9472ZM152.188 7.3047C151.007 7.3047 149.948 7.66774 149.135 8.95488C148.612 7.71174 147.52 7.27169 146.428 7.27169C145.559 7.27169 144.501 7.60173 144.022 8.51483L143.855 7.41471H141.761V16.4467H144.022V11.6172C144.022 10.429 144.746 9.35092 145.972 9.35092C147.208 9.35092 147.843 10.429 147.843 11.6172V16.4467H150.104V11.6172C150.104 10.429 150.862 9.38392 152.087 9.38392C153.313 9.38392 153.814 10.385 153.814 11.5732V16.4357H156.075V11.5732C156.053 8.87787 154.772 7.3047 152.188 7.3047Z" fill="white"/>
</g>
</g>
<defs>
<clipPath id="clip0_345_1454">
<rect width="157" height="23" fill="white" transform="translate(0.5 0.0566406)"/>
</clipPath>
</defs>
</svg>
