<svg width="20" height="21" viewBox="0 0 20 21" fill="none" xmlns="http://www.w3.org/2000/svg">
<path d="M0 5.78076C0 5.11772 0.263392 4.48184 0.732233 4.01299C1.20107 3.54415 1.83696 3.28076 2.5 3.28076H17.5C18.163 3.28076 18.7989 3.54415 19.2678 4.01299C19.7366 4.48184 20 5.11772 20 5.78076V15.7808C20 16.4438 19.7366 17.0797 19.2678 17.5485C18.7989 18.0174 18.163 18.2808 17.5 18.2808H2.5C1.83696 18.2808 1.20107 18.0174 0.732233 17.5485C0.263392 17.0797 0 16.4438 0 15.7808V5.78076ZM2.5 4.53076C2.16848 4.53076 1.85054 4.66246 1.61612 4.89688C1.3817 5.1313 1.25 5.44924 1.25 5.78076V7.03076H18.75V5.78076C18.75 5.44924 18.6183 5.1313 18.3839 4.89688C18.1495 4.66246 17.8315 4.53076 17.5 4.53076H2.5ZM18.75 9.53076H1.25V15.7808C1.25 16.1123 1.3817 16.4302 1.61612 16.6646C1.85054 16.8991 2.16848 17.0308 2.5 17.0308H17.5C17.8315 17.0308 18.1495 16.8991 18.3839 16.6646C18.6183 16.4302 18.75 16.1123 18.75 15.7808V9.53076Z" fill="#060606" fill-opacity="0.3"/>
<path d="M2.5 13.2808C2.5 12.9492 2.6317 12.6313 2.86612 12.3969C3.10054 12.1625 3.41848 12.0308 3.75 12.0308H5C5.33152 12.0308 5.64946 12.1625 5.88388 12.3969C6.1183 12.6313 6.25 12.9492 6.25 13.2808V14.5308C6.25 14.8623 6.1183 15.1802 5.88388 15.4146C5.64946 15.6491 5.33152 15.7808 5 15.7808H3.75C3.41848 15.7808 3.10054 15.6491 2.86612 15.4146C2.6317 15.1802 2.5 14.8623 2.5 14.5308V13.2808Z" fill="#060606" fill-opacity="0.3"/>
</svg>
