<svg width="25" height="25" viewBox="0 0 25 25" fill="none" xmlns="http://www.w3.org/2000/svg">
<path d="M24.8008 12.0258C24.8008 18.0866 20.3082 23.0971 14.4719 23.9102C13.9262 23.9859 13.3679 24.0254 12.8012 24.0254C12.147 24.0254 11.5046 23.9733 10.8791 23.8724C5.16472 22.9525 0.800781 17.9983 0.800781 12.0258C0.800781 5.39834 6.17373 0.0253906 12.8004 0.0253906C19.427 0.0253906 24.8008 5.39834 24.8008 12.0258Z" fill="#1877F2"/>
<path d="M14.4719 9.66054V12.2747H17.7058L17.1937 15.7961H14.4719V23.9094C13.9262 23.985 13.3679 24.0246 12.8012 24.0246C12.147 24.0246 11.5046 23.9724 10.8791 23.8715V15.7961H7.89661V12.2747H10.8791V9.07616C10.8791 7.09178 12.4876 5.48242 14.4728 5.48242V5.4841C14.4787 5.4841 14.4837 5.48242 14.4896 5.48242H17.7066V8.52793H15.6046C14.9798 8.52793 14.4728 9.03496 14.4728 9.6597L14.4719 9.66054Z" fill="white"/>
</svg>
