<svg width="21" height="25" viewBox="0 0 21 25" fill="none" xmlns="http://www.w3.org/2000/svg">
<path d="M7.33203 11.2124C7.33203 9.47386 8.74144 8.06445 10.48 8.06445C12.2186 8.06445 13.628 9.47386 13.628 11.2124V12.4165C13.628 14.155 12.2186 15.5645 10.48 15.5645C8.74144 15.5645 7.33203 14.155 7.33203 12.4165V11.2124Z" stroke="#201E1E" stroke-opacity="0.2" stroke-width="1.5"/>
<mask id="path-2-inside-1_0_5396" fill="white">
<path fill-rule="evenodd" clip-rule="evenodd" d="M20.4647 11.8145C19.2112 16.1468 15.2147 19.3145 10.4785 19.3145C5.74219 19.3145 1.74577 16.1468 0.492188 11.8145C1.74577 7.48212 5.74219 4.31445 10.4785 4.31445C15.2147 4.31445 19.2112 7.48212 20.4647 11.8145Z"/>
</mask>
<path d="M20.4647 11.8145L21.9056 12.2314L22.0263 11.8145L21.9056 11.3975L20.4647 11.8145ZM0.492188 11.8145L-0.948705 11.3975L-1.06935 11.8145L-0.948705 12.2314L0.492188 11.8145ZM19.0239 11.3975C17.9509 15.1056 14.5291 17.8145 10.4785 17.8145V20.8145C15.9004 20.8145 20.4714 17.188 21.9056 12.2314L19.0239 11.3975ZM10.4785 17.8145C6.42785 17.8145 3.00603 15.1056 1.93308 11.3975L-0.948705 12.2314C0.485513 17.188 5.05654 20.8145 10.4785 20.8145V17.8145ZM1.93308 12.2314C3.00603 8.52331 6.42785 5.81445 10.4785 5.81445V2.81445C5.05654 2.81445 0.485512 6.44092 -0.948705 11.3975L1.93308 12.2314ZM10.4785 5.81445C14.5291 5.81445 17.9509 8.52332 19.0239 12.2314L21.9056 11.3975C20.4714 6.44093 15.9004 2.81445 10.4785 2.81445V5.81445Z" fill="#201E1E" fill-opacity="0.2" mask="url(#path-2-inside-1_0_5396)"/>
<path d="M13.731 2.06445L7.23438 22.3145" stroke="#201E1E" stroke-opacity="0.2" stroke-width="1.5" stroke-linecap="round"/>
<path d="M14.7662 2.06445L8.26953 22.3145" stroke="white" stroke-width="1.5" stroke-linecap="round"/>
</svg>