<svg width="25" height="25" viewBox="0 0 25 25" fill="none" xmlns="http://www.w3.org/2000/svg">
<path d="M12.8281 0.0253906H12.7735C6.16113 0.0253906 0.800781 5.38574 0.800781 11.9981V12.0527C0.800781 18.665 6.16113 24.0254 12.7735 24.0254H12.8281C19.4404 24.0254 24.8008 18.665 24.8008 12.0527V11.9981C24.8008 5.38574 19.4404 0.0253906 12.8281 0.0253906Z" fill="url(#paint0_linear_345_3237)"/>
<path d="M16.5144 4.90808H9.08813C7.03649 4.90808 5.36743 6.57714 5.36743 8.62878V15.4227C5.36743 17.4744 7.03649 19.1434 9.08813 19.1434H16.5144C18.566 19.1434 20.2351 17.4744 20.2351 15.4227V8.62878C20.2351 6.57714 18.566 4.90808 16.5144 4.90808ZM6.67998 8.62878C6.67998 7.3011 7.76045 6.22063 9.08813 6.22063H16.5144C17.8421 6.22063 18.9226 7.3011 18.9226 8.62878V15.4227C18.9226 16.7504 17.8421 17.8309 16.5144 17.8309H9.08813C7.76045 17.8309 6.67998 16.7504 6.67998 15.4227V8.62878Z" fill="white"/>
<path d="M12.8012 15.4859C14.7091 15.4859 16.2621 13.9337 16.2621 12.025C16.2621 10.1163 14.7099 8.56409 12.8012 8.56409C10.8925 8.56409 9.34033 10.1163 9.34033 12.025C9.34033 13.9337 10.8925 15.4859 12.8012 15.4859ZM12.8012 9.87747C13.986 9.87747 14.9496 10.8411 14.9496 12.0258C14.9496 13.2106 13.986 14.1741 12.8012 14.1741C11.6165 14.1741 10.6529 13.2106 10.6529 12.0258C10.6529 10.8411 11.6165 9.87747 12.8012 9.87747Z" fill="white"/>
<path d="M16.5825 9.12328C17.0963 9.12328 17.515 8.70538 17.515 8.19079C17.515 7.6762 17.0971 7.2583 16.5825 7.2583C16.0679 7.2583 15.65 7.6762 15.65 8.19079C15.65 8.70538 16.0679 9.12328 16.5825 9.12328Z" fill="white"/>
<defs>
<linearGradient id="paint0_linear_345_3237" x1="4.30707" y1="20.5191" x2="21.2945" y2="3.53252" gradientUnits="userSpaceOnUse">
<stop stop-color="#FAAD4F"/>
<stop offset="0.35" stop-color="#DD2A7B"/>
<stop offset="0.62" stop-color="#9537B0"/>
<stop offset="1" stop-color="#515BD4"/>
</linearGradient>
</defs>
</svg>
