<svg width="25" height="25" viewBox="0 0 25 25" fill="none" xmlns="http://www.w3.org/2000/svg">
<path d="M24.7991 12.0258C24.7991 18.0866 20.3067 23.0971 14.4706 23.9102C13.9249 23.9859 13.3666 24.0254 12.7999 24.0254C12.1458 24.0254 11.5034 23.9733 10.8779 23.8724C5.16457 22.9525 0.800781 17.9983 0.800781 12.0258C0.800781 5.39834 6.17354 0.0253906 12.8008 0.0253906C19.428 0.0253906 24.8008 5.39834 24.8008 12.0258H24.7991Z" fill="#201E1E" fill-opacity="0.6"/>
<path d="M13.3969 15.6722C13.4906 15.766 13.5432 15.8931 13.5432 16.0257C13.5432 16.1582 13.4906 16.2854 13.3969 16.3791L12.7756 17.0041C12.1187 17.6607 11.2277 18.0294 10.2989 18.0291C9.37008 18.0288 8.47941 17.6595 7.82283 17.0026C7.16625 16.3456 6.79756 15.4547 6.79785 14.5258C6.79814 13.597 7.1674 12.7063 7.82439 12.0497L9.33189 10.5422C9.96295 9.91069 10.8115 9.54416 11.7039 9.51767C12.5963 9.49118 13.4651 9.80673 14.1325 10.3997C14.1818 10.4434 14.2219 10.4963 14.2507 10.5555C14.2795 10.6147 14.2964 10.679 14.3003 10.7447C14.3042 10.8104 14.2952 10.8762 14.2737 10.9384C14.2522 11.0006 14.2187 11.058 14.175 11.1072C14.1314 11.1565 14.0784 11.1967 14.0192 11.2254C13.96 11.2542 13.8958 11.2711 13.8301 11.275C13.7644 11.279 13.6985 11.2699 13.6363 11.2484C13.5741 11.2269 13.5168 11.1934 13.4675 11.1497C12.9908 10.7264 12.3705 10.5012 11.7332 10.5202C11.096 10.5391 10.4901 10.8008 10.0394 11.2516L8.53189 12.7572C8.06296 13.2262 7.79951 13.8622 7.79951 14.5254C7.79951 15.1885 8.06296 15.8246 8.53189 16.2935C9.00083 16.7624 9.63684 17.0259 10.3 17.0259C10.9632 17.0259 11.5992 16.7624 12.0681 16.2935L12.6894 15.6722C12.7358 15.6258 12.791 15.5889 12.8517 15.5637C12.9124 15.5386 12.9774 15.5256 13.0431 15.5256C13.1089 15.5256 13.1739 15.5386 13.2346 15.5637C13.2953 15.5889 13.3505 15.6258 13.3969 15.6722ZM17.7769 7.04725C17.1198 6.39163 16.2295 6.02344 15.3013 6.02344C14.373 6.02344 13.4827 6.39163 12.8256 7.04725L12.2044 7.66912C12.1107 7.76294 12.058 7.89016 12.0581 8.02278C12.0581 8.1554 12.1109 8.28257 12.2047 8.37631C12.2985 8.47005 12.4257 8.52268 12.5584 8.52262C12.691 8.52256 12.8182 8.46982 12.9119 8.376L13.5331 7.75475C14.0021 7.28581 14.6381 7.02237 15.3013 7.02237C15.9644 7.02237 16.6005 7.28581 17.0694 7.75475C17.5383 8.22368 17.8018 8.8597 17.8018 9.52287C17.8018 10.186 17.5383 10.8221 17.0694 11.291L15.5619 12.7997C15.111 13.2504 14.5049 13.5117 13.8677 13.5303C13.2305 13.5488 12.6102 13.3233 12.1338 12.8997C12.0343 12.8116 11.9039 12.7665 11.7712 12.7745C11.6385 12.7824 11.5145 12.8428 11.4263 12.9422C11.3381 13.0417 11.293 13.1721 11.301 13.3048C11.309 13.4375 11.3693 13.5616 11.4688 13.6497C12.136 14.2429 13.0047 14.5587 13.8971 14.5324C14.7895 14.5062 15.6382 14.1399 16.2694 13.5085L17.7769 12.001C18.4329 11.3439 18.8013 10.4533 18.8013 9.52475C18.8013 8.59622 18.4329 7.70564 17.7769 7.0485V7.04725Z" fill="white"/>
</svg>
