<svg width="16" height="17" viewBox="0 0 16 17" fill="none" xmlns="http://www.w3.org/2000/svg">
<path fill-rule="evenodd" clip-rule="evenodd" d="M7.99916 14.6741L8.47992 14.1324C9.02545 13.5076 9.51612 12.9148 9.95269 12.351L10.3131 11.8756C11.8178 9.84817 12.5706 8.23903 12.5706 7.0497C12.5706 4.51103 10.5241 2.45312 7.99916 2.45312C5.47421 2.45312 3.42773 4.51103 3.42773 7.0497C3.42773 8.23903 4.1805 9.84817 5.68526 11.8756L6.04564 12.351C6.66845 13.149 7.32005 13.9234 7.99916 14.6741Z" stroke="#4267B3" stroke-width="1.14286" stroke-linecap="round" stroke-linejoin="round"/>
<path d="M7.99851 8.92866C9.05048 8.92866 9.90327 8.07587 9.90327 7.0239C9.90327 5.97193 9.05048 5.11914 7.99851 5.11914C6.94654 5.11914 6.09375 5.97193 6.09375 7.0239C6.09375 8.07587 6.94654 8.92866 7.99851 8.92866Z" stroke="#4267B3" stroke-width="1.14286" stroke-linecap="round" stroke-linejoin="round"/>
</svg>
