<svg width="21" height="20" viewBox="0 0 21 20" fill="none" xmlns="http://www.w3.org/2000/svg">
<path d="M18.109 16.5626C16.9207 14.5055 15.0896 13.0305 12.9526 12.3313C14.0096 11.7012 14.8309 10.741 15.2902 9.59833C15.7496 8.45561 15.8216 7.19349 15.4953 6.0058C15.169 4.81811 14.4623 3.77051 13.4839 3.0239C12.5054 2.27728 11.3092 1.87292 10.079 1.87292C8.84886 1.87292 7.65269 2.27728 6.67423 3.0239C5.69576 3.77051 4.98911 4.81811 4.66278 6.0058C4.33645 7.19349 4.4085 8.45561 4.86786 9.59833C5.32721 10.741 6.14848 11.7012 7.20553 12.3313C5.06854 13.0297 3.23738 14.5047 2.04912 16.5626C2.00555 16.6337 1.97665 16.7129 1.96412 16.7954C1.95159 16.8779 1.9557 16.9621 1.97619 17.043C1.99669 17.1239 2.03316 17.1998 2.08345 17.2664C2.13374 17.333 2.19683 17.3888 2.26901 17.4305C2.34118 17.4722 2.42098 17.4991 2.50368 17.5095C2.58639 17.5198 2.67033 17.5135 2.75055 17.4909C2.83077 17.4682 2.90565 17.4297 2.97078 17.3776C3.0359 17.3255 3.08994 17.2609 3.12971 17.1876C4.59963 14.6438 7.19773 13.1251 10.079 13.1251C12.9604 13.1251 15.5585 14.6438 17.0284 17.1876C17.0681 17.2609 17.1222 17.3255 17.1873 17.3776C17.2524 17.4297 17.3273 17.4682 17.4075 17.4909C17.4878 17.5135 17.5717 17.5198 17.6544 17.5095C17.7371 17.4991 17.8169 17.4722 17.8891 17.4305C17.9613 17.3888 18.0243 17.333 18.0746 17.2664C18.1249 17.1998 18.1614 17.1239 18.1819 17.043C18.2024 16.9621 18.2065 16.8779 18.194 16.7954C18.1814 16.7129 18.1525 16.6337 18.109 16.5626ZM5.70987 7.50005C5.70987 6.63476 5.96612 5.7889 6.44621 5.06943C6.9263 4.34997 7.60867 3.78921 8.40703 3.45808C9.20539 3.12694 10.0839 3.0403 10.9314 3.20911C11.779 3.37792 12.5575 3.7946 13.1685 4.40646C13.7796 5.01831 14.1957 5.79786 14.3643 6.64653C14.5329 7.4952 14.4463 8.37486 14.1156 9.17429C13.7849 9.97372 13.2249 10.657 12.5064 11.1377C11.7879 11.6185 10.9432 11.8751 10.079 11.8751C8.92065 11.8738 7.81005 11.4125 6.99094 10.5923C6.17183 9.77207 5.71111 8.65999 5.70987 7.50005Z" fill="#201E1E" fill-opacity="0.4"/>
</svg>
