<svg width="37" height="37" viewBox="0 0 37 37" fill="none" xmlns="http://www.w3.org/2000/svg">
<path d="M18.9863 2.48145L5.48633 6.98145V20.4814C5.48633 27.9381 11.5297 33.9814 18.9863 33.9814C26.443 33.9814 32.4863 27.9381 32.4863 20.4814V6.98145L18.9863 2.48145ZM29.9551 20.4814C29.9551 26.5389 25.0438 31.4502 18.9863 31.4502C12.9289 31.4502 8.01758 26.5389 8.01758 20.4814V8.87988L18.9863 5.0127L29.9551 8.87988V20.4814Z" fill="#13B752"/>
<path d="M14.2902 16.9344C14.1729 16.8166 14.0334 16.7231 13.8799 16.6593C13.7263 16.5955 13.5617 16.5626 13.3954 16.5626C13.2292 16.5626 13.0645 16.5955 12.911 16.6593C12.7574 16.7231 12.618 16.8166 12.5007 16.9344C12.3829 17.0517 12.2894 17.1912 12.2256 17.3447C12.1618 17.4982 12.1289 17.6629 12.1289 17.8292C12.1289 17.9954 12.1618 18.1601 12.2256 18.3136C12.2894 18.4671 12.3829 18.6066 12.5007 18.7239L17.0499 23.2731L17.1238 23.3469C17.2347 23.4581 17.3665 23.5463 17.5116 23.6065C17.6567 23.6666 17.8122 23.6976 17.9693 23.6976C18.1263 23.6976 18.2819 23.6666 18.4269 23.6065C18.572 23.5463 18.7038 23.4581 18.8148 23.3469L26.6722 15.4895C26.7834 15.3785 26.8716 15.2468 26.9317 15.1017C26.9919 14.9566 27.0229 14.8011 27.0229 14.644C27.0229 14.4869 26.9919 14.3314 26.9317 14.1863C26.8716 14.0412 26.7834 13.9094 26.6722 13.7985L26.5738 13.7001C26.4628 13.5889 26.331 13.5007 26.1859 13.4405C26.0408 13.3803 25.8853 13.3494 25.7282 13.3494C25.5712 13.3494 25.4157 13.3803 25.2706 13.4405C25.1255 13.5007 24.9937 13.5889 24.8827 13.7001L17.9675 20.6118L14.2902 16.9344Z" fill="#13B752"/>
</svg>
