<svg width="30" height="24" viewBox="0 0 30 24" fill="none" xmlns="http://www.w3.org/2000/svg">
<path opacity="0.2" d="M27.8467 0.37207H2.73784C1.55666 0.37207 0.609375 1.31936 0.609375 2.50054V20.9199C0.609375 22.1011 1.55666 23.0484 2.73784 23.0484H27.8467C29.0279 23.0484 29.9752 22.1011 29.9752 20.9199V2.50054C29.9752 1.33105 29.0279 0.37207 27.8467 0.37207ZM15.2864 14.3006C13.8597 14.3006 12.7019 13.1429 12.7019 11.7161C12.7019 10.2893 13.8597 9.13153 15.2864 9.13153C16.7132 9.13153 17.871 10.2893 17.871 11.7161C17.871 13.1429 16.7132 14.3006 15.2864 14.3006ZM5.24054 11.7161V14.9088H3.21733V8.52339H5.24054V11.7161ZM3.21733 16.9554H7.28714V11.7161V6.47679H3.21733V3.16715H14.269V7.20187C12.2107 7.66967 10.667 9.50576 10.667 11.7044C10.667 13.903 12.2107 15.7508 14.269 16.2186V20.2533H3.21733V16.9554ZM16.3156 20.265V16.2303C18.3739 15.7625 19.9176 13.9264 19.9176 11.7161C19.9176 9.51745 18.3739 7.66966 16.3156 7.21356V3.17884H27.3672V6.48848H23.2974V11.7278V16.9671H27.3672V20.2767H16.3156V20.265ZM25.344 11.7161V8.52339H27.3672V14.9088H25.344V11.7161Z" fill="#4267B320"/>
</svg>
