<svg width="21" height="21" viewBox="0 0 21 21" fill="none" xmlns="http://www.w3.org/2000/svg">
<g clip-path="url(#clip0_345_2949)">
<path d="M17.7058 11.3602H15.7507C15.4846 11.3602 15.2269 11.3966 14.9818 11.4636C14.4981 10.5116 13.5107 9.85742 12.3729 9.85742H8.91692C7.7791 9.85742 6.79167 10.5116 6.30801 11.4636C6.06283 11.3966 5.80521 11.3602 5.53912 11.3602H3.58399C1.97071 11.3602 0.658203 12.6745 0.658203 14.2899V17.4195C0.658203 18.3888 1.44571 19.1773 2.41368 19.1773H18.8761C19.8441 19.1773 20.6316 18.3888 20.6316 17.4195V14.2899C20.6316 12.6745 19.3191 11.3602 17.7058 11.3602ZM5.99113 12.7872V18.0055H2.41368C2.09102 18.0055 1.82852 17.7427 1.82852 17.4196V14.29C1.82852 13.3207 2.61602 12.5321 3.58399 12.5321H5.53912C5.69797 12.5321 5.85179 12.5538 5.99823 12.5936C5.99402 12.6577 5.99113 12.7221 5.99113 12.7872ZM14.1283 18.0055H7.16145V12.7871C7.16145 11.8179 7.94895 11.0293 8.91692 11.0293H12.3729C13.3408 11.0293 14.1283 11.8179 14.1283 12.7871V18.0055ZM19.4613 17.4196C19.4613 17.7427 19.1988 18.0055 18.8761 18.0055H15.2986V12.7871C15.2986 12.722 15.2958 12.6576 15.2915 12.5935C15.438 12.5538 15.5918 12.5321 15.7507 12.5321H17.7058C18.6738 12.5321 19.4613 13.3207 19.4613 14.2899V17.4196Z" fill="#4267B3"/>
<path d="M4.56156 5.82629C3.12797 5.82629 1.96167 6.99415 1.96167 8.42965C1.96163 9.86516 3.12797 11.033 4.56156 11.033C5.99512 11.033 7.16146 9.86516 7.16146 8.42965C7.16146 6.99415 5.99516 5.82629 4.56156 5.82629ZM4.56152 9.86114C3.77324 9.86114 3.13195 9.21899 3.13195 8.42965C3.13195 7.64032 3.77324 6.99817 4.56152 6.99817C5.34981 6.99817 5.9911 7.64032 5.9911 8.42965C5.9911 9.21899 5.34981 9.86114 4.56152 9.86114Z" fill="#4267B3"/>
<path d="M10.6448 2.59375C8.72954 2.59375 7.17139 4.15398 7.17139 6.0718C7.17139 7.98961 8.72954 9.54984 10.6448 9.54984C12.5601 9.54984 14.1182 7.98961 14.1182 6.0718C14.1182 4.15402 12.5601 2.59375 10.6448 2.59375ZM10.6448 8.37797C9.37485 8.37797 8.3417 7.34344 8.3417 6.0718C8.3417 4.80019 9.37485 3.76562 10.6448 3.76562C11.9147 3.76562 12.9479 4.80016 12.9479 6.0718C12.9479 7.34344 11.9147 8.37797 10.6448 8.37797Z" fill="#4267B3"/>
<path d="M16.7282 5.82629C15.2946 5.82629 14.1283 6.99415 14.1283 8.42965C14.1283 9.86516 15.2946 11.033 16.7282 11.033C18.1618 11.033 19.3281 9.86516 19.3281 8.42965C19.3281 6.99415 18.1618 5.82629 16.7282 5.82629ZM16.7282 9.86114C15.9399 9.86114 15.2986 9.21899 15.2986 8.42965C15.2986 7.64032 15.9399 6.99817 16.7282 6.99817C17.5165 6.99817 18.1578 7.64032 18.1578 8.42965C18.1578 9.21899 17.5165 9.86114 16.7282 9.86114Z" fill="#4267B3"/>
</g>
<defs>
<clipPath id="clip0_345_2949">
<rect width="19.9734" height="20" fill="white" transform="translate(0.658203 0.884766)"/>
</clipPath>
</defs>
</svg>
