<svg width="36" height="37" viewBox="0 0 36 37" fill="none" xmlns="http://www.w3.org/2000/svg">
<path d="M4.5 15.7314H3.375C3.375 16.3524 3.879 16.8564 4.5 16.8564V15.7314ZM4.5 21.7314V20.6064C4.20163 20.6064 3.91548 20.725 3.7045 20.936C3.49353 21.1469 3.375 21.4331 3.375 21.7314H4.5ZM31.5 15.7314V16.8564C31.7984 16.8564 32.0845 16.7379 32.2955 16.5269C32.5065 16.316 32.625 16.0298 32.625 15.7314H31.5ZM31.5 21.7314H32.625C32.625 21.4331 32.5065 21.1469 32.2955 20.936C32.0845 20.725 31.7984 20.6064 31.5 20.6064V21.7314ZM7.5 9.35645H15V7.10645H7.5V9.35645ZM15 9.35645H28.5V7.10645H15V9.35645ZM28.5 28.1064H15V30.3564H28.5V28.1064ZM15 28.1064H7.5V30.3564H15V28.1064ZM13.875 8.23145V29.2314H16.125V8.23145H13.875ZM5.826 17.4054C6.00016 17.5796 6.13832 17.7863 6.23258 18.0138C6.32683 18.2413 6.37535 18.4852 6.37535 18.7314C6.37535 18.9777 6.32683 19.2216 6.23258 19.4491C6.13832 19.6766 6.00016 19.8833 5.826 20.0574L7.416 21.6474C8.18955 20.8739 8.62412 19.8247 8.62412 18.7307C8.62412 17.6367 8.18955 16.5875 7.416 15.8139L5.826 17.4054ZM30.174 20.0574C29.9998 19.8833 29.8617 19.6766 29.7674 19.4491C29.6732 19.2216 29.6247 18.9777 29.6247 18.7314C29.6247 18.4852 29.6732 18.2413 29.7674 18.0138C29.8617 17.7863 29.9998 17.5796 30.174 17.4054L28.584 15.8154C27.8105 16.589 27.3759 17.6382 27.3759 18.7322C27.3759 19.8262 27.8105 20.8754 28.584 21.6489L30.174 20.0574ZM4.5 16.8564C4.9815 16.8564 5.46 17.0394 5.826 17.4054L7.416 15.8139C7.03342 15.4305 6.5789 15.1278 6.07851 14.9203C5.57812 14.7128 5.0417 14.6062 4.5 14.6064V16.8564ZM5.625 15.7314V11.2314H3.375V15.7314H5.625ZM5.625 26.2314V21.7314H3.375V26.2314H5.625ZM5.826 20.0574C5.65215 20.2319 5.44547 20.3703 5.21789 20.4645C4.99031 20.5587 4.74632 20.607 4.5 20.6064V22.8564C5.5545 22.8564 6.612 22.4529 7.4175 21.6474L5.826 20.0574ZM30.174 17.4054C30.54 17.0394 31.0185 16.8564 31.5 16.8564V14.6064C30.4455 14.6064 29.3895 15.0099 28.584 15.8154L30.174 17.4054ZM30.375 11.2314V15.7314H32.625V11.2314H30.375ZM30.375 21.7314V26.2314H32.625V21.7314H30.375ZM31.5 20.6064C31.0185 20.6064 30.54 20.4234 30.174 20.0574L28.584 21.6489C28.9665 22.0325 29.421 22.3352 29.9214 22.5427C30.4218 22.7502 30.9583 22.8568 31.5 22.8564V20.6064ZM7.5 28.1064C6.465 28.1064 5.625 27.2664 5.625 26.2314H3.375C3.375 27.3255 3.8096 28.3747 4.58318 29.1483C5.35677 29.9218 6.40598 30.3564 7.5 30.3564V28.1064ZM28.5 30.3564C29.594 30.3564 30.6432 29.9218 31.4168 29.1483C32.1904 28.3747 32.625 27.3255 32.625 26.2314H30.375C30.375 27.2664 29.535 28.1064 28.5 28.1064V30.3564ZM28.5 9.35645C29.535 9.35645 30.375 10.1964 30.375 11.2314H32.625C32.625 10.1374 32.1904 9.08822 31.4168 8.31463C30.6432 7.54104 29.594 7.10645 28.5 7.10645V9.35645ZM7.5 7.10645C6.40598 7.10645 5.35677 7.54104 4.58318 8.31463C3.8096 9.08822 3.375 10.1374 3.375 11.2314H5.625C5.625 10.1964 6.465 9.35645 7.5 9.35645V7.10645Z" fill="#426FB3"/>
</svg>
