<svg width="20" height="14" viewBox="0 0 20 14" fill="none" xmlns="http://www.w3.org/2000/svg">
<path d="M19.2024 5.1217C19.2438 3.94524 18.982 2.77758 18.4413 1.72714C18.0744 1.29612 17.5653 1.00525 17.0026 0.905209C14.6751 0.697693 12.3381 0.612638 10.0014 0.650411C7.67323 0.610924 5.34458 0.693234 3.02532 0.89699C2.56679 0.97895 2.14246 1.19029 1.80409 1.50522C1.05128 2.18742 0.967635 3.35456 0.883989 4.34087C0.762629 6.11423 0.762629 7.89361 0.883989 9.66697C0.908188 10.2221 0.992305 10.7731 1.13493 11.3108C1.23578 11.726 1.43983 12.11 1.72881 12.4286C2.06948 12.7603 2.5037 12.9836 2.97514 13.0698C4.77847 13.2885 6.59551 13.3791 8.41212 13.341C11.3397 13.3821 13.9077 13.341 16.944 13.1109C17.427 13.03 17.8735 12.8064 18.2238 12.4697C18.458 12.2395 18.6329 11.9578 18.734 11.6478C19.0332 10.7458 19.1801 9.80186 19.169 8.85326C19.2024 8.39298 19.2024 5.61486 19.2024 5.1217ZM8.111 9.34642V4.25868L13.0628 6.81488C11.6743 7.57105 9.84247 8.42586 8.111 9.34642Z" fill="white"/>
</svg>
