<svg width="21" height="20" viewBox="0 0 21 20" fill="none" xmlns="http://www.w3.org/2000/svg">
<path d="M14.0712 9.81971C15.5946 9.00034 18.795 6.97517 18.795 4.4194C18.795 3.13733 17.7258 2.09429 16.4116 2.09429C16.2434 2.09429 16.0775 2.11754 15.914 2.15288C15.9269 1.8269 15.935 1.49813 15.935 1.16424C15.935 0.907549 15.7214 0.699219 15.4583 0.699219H4.97148C4.70835 0.699219 4.4948 0.907549 4.4948 1.16424C4.4948 1.49813 4.50291 1.8269 4.51578 2.15288C4.35228 2.11754 4.1864 2.09429 4.01813 2.09429C2.70394 2.09429 1.63477 3.13733 1.63477 4.4194C1.63477 6.9747 4.83562 9.00034 6.35859 9.82018C7.03452 11.0613 7.86202 11.9714 8.78486 12.4373V13.7199H5.44815C5.18503 13.7199 4.97148 13.9282 4.97148 14.1849V16.51H4.4948C4.23168 16.51 4.01813 16.7183 4.01813 16.975V18.8351C4.01813 19.0918 4.23168 19.3001 4.4948 19.3001H15.935C16.1981 19.3001 16.4116 19.0918 16.4116 18.8351V16.975C16.4116 16.7183 16.1981 16.51 15.935 16.51H15.4583V14.1849C15.4583 13.9282 15.2447 13.7199 14.9816 13.7199H11.6449V12.4369C12.5677 11.9709 13.3952 11.0609 14.0712 9.81971ZM16.4116 3.02433C17.2 3.02433 17.8416 3.65025 17.8416 4.4194C17.8416 6.00234 16.1018 7.44391 14.7495 8.32699C15.31 6.85147 15.6971 5.08485 15.8549 3.13966C16.0322 3.06479 16.221 3.02433 16.4116 3.02433ZM2.58811 4.4194C2.58811 3.65025 3.22971 3.02433 4.01813 3.02433C4.2088 3.02433 4.39756 3.06479 4.57536 3.13966C4.73314 5.08485 5.11972 6.85147 5.68029 8.32652C4.32797 7.44344 2.58811 6.00187 2.58811 4.4194ZM5.45292 1.62926H14.9768C14.8639 7.22116 12.7293 11.8598 10.2149 11.8598C7.70043 11.8598 5.56589 7.22116 5.45292 1.62926ZM15.4583 18.3701H4.97148V17.44H15.4583V18.3701ZM14.5049 16.51H5.92482V14.6499H14.5049V16.51ZM10.6916 13.7199H9.7382V12.7484C9.89551 12.7735 10.0542 12.7898 10.2149 12.7898C10.3755 12.7898 10.5342 12.7735 10.6916 12.7484V13.7199Z" fill="#201E1E" fill-opacity="0.4"/>
</svg>
