<svg width="24" height="25" viewBox="0 0 24 25" fill="none" xmlns="http://www.w3.org/2000/svg">
<path d="M17.75 3.83032C18.612 3.83032 19.4386 4.17273 20.0481 4.78223C20.6576 5.39172 21 6.21837 21 7.08032V18.5803C21 19.4423 20.6576 20.2689 20.0481 20.8784C19.4386 21.4879 18.612 21.8303 17.75 21.8303H6.25C5.38805 21.8303 4.5614 21.4879 3.9519 20.8784C3.34241 20.2689 3 19.4423 3 18.5803V7.08032C3 6.21837 3.34241 5.39172 3.9519 4.78223C4.5614 4.17273 5.38805 3.83032 6.25 3.83032H17.75ZM19.5 9.33032H4.5V18.5803C4.5 19.5463 5.284 20.3303 6.25 20.3303H17.75C18.2141 20.3303 18.6592 20.1459 18.9874 19.8178C19.3156 19.4896 19.5 19.0445 19.5 18.5803V9.33032ZM7.75 15.3303C8.08152 15.3303 8.39946 15.462 8.63388 15.6964C8.8683 15.9309 9 16.2488 9 16.5803C9 16.9118 8.8683 17.2298 8.63388 17.4642C8.39946 17.6986 8.08152 17.8303 7.75 17.8303C7.41848 17.8303 7.10054 17.6986 6.86612 17.4642C6.6317 17.2298 6.5 16.9118 6.5 16.5803C6.5 16.2488 6.6317 15.9309 6.86612 15.6964C7.10054 15.462 7.41848 15.3303 7.75 15.3303ZM12 15.3303C12.3315 15.3303 12.6495 15.462 12.8839 15.6964C13.1183 15.9309 13.25 16.2488 13.25 16.5803C13.25 16.9118 13.1183 17.2298 12.8839 17.4642C12.6495 17.6986 12.3315 17.8303 12 17.8303C11.6685 17.8303 11.3505 17.6986 11.1161 17.4642C10.8817 17.2298 10.75 16.9118 10.75 16.5803C10.75 16.2488 10.8817 15.9309 11.1161 15.6964C11.3505 15.462 11.6685 15.3303 12 15.3303ZM7.75 11.3303C8.08152 11.3303 8.39946 11.462 8.63388 11.6964C8.8683 11.9309 9 12.2488 9 12.5803C9 12.9118 8.8683 13.2298 8.63388 13.4642C8.39946 13.6986 8.08152 13.8303 7.75 13.8303C7.41848 13.8303 7.10054 13.6986 6.86612 13.4642C6.6317 13.2298 6.5 12.9118 6.5 12.5803C6.5 12.2488 6.6317 11.9309 6.86612 11.6964C7.10054 11.462 7.41848 11.3303 7.75 11.3303ZM12 11.3303C12.3315 11.3303 12.6495 11.462 12.8839 11.6964C13.1183 11.9309 13.25 12.2488 13.25 12.5803C13.25 12.9118 13.1183 13.2298 12.8839 13.4642C12.6495 13.6986 12.3315 13.8303 12 13.8303C11.6685 13.8303 11.3505 13.6986 11.1161 13.4642C10.8817 13.2298 10.75 12.9118 10.75 12.5803C10.75 12.2488 10.8817 11.9309 11.1161 11.6964C11.3505 11.462 11.6685 11.3303 12 11.3303ZM16.25 11.3303C16.5815 11.3303 16.8995 11.462 17.1339 11.6964C17.3683 11.9309 17.5 12.2488 17.5 12.5803C17.5 12.9118 17.3683 13.2298 17.1339 13.4642C16.8995 13.6986 16.5815 13.8303 16.25 13.8303C15.9185 13.8303 15.6005 13.6986 15.3661 13.4642C15.1317 13.2298 15 12.9118 15 12.5803C15 12.2488 15.1317 11.9309 15.3661 11.6964C15.6005 11.462 15.9185 11.3303 16.25 11.3303ZM17.75 5.33032H6.25C5.78587 5.33032 5.34075 5.5147 5.01256 5.84289C4.68437 6.17107 4.5 6.61619 4.5 7.08032V7.83032H19.5V7.08032C19.5 6.61619 19.3156 6.17107 18.9874 5.84289C18.6592 5.5147 18.2141 5.33032 17.75 5.33032Z" fill="#201E1E" fill-opacity="0.4"/>
</svg>
