<svg width="25" height="25" viewBox="0 0 25 25" fill="none" xmlns="http://www.w3.org/2000/svg">
<path d="M8.33203 10.807V7.80701C8.33203 6.74614 8.75346 5.72873 9.5036 4.97858C10.2537 4.22843 11.2712 3.80701 12.332 3.80701C13.3929 3.80701 14.4103 4.22843 15.1605 4.97858C15.9106 5.72873 16.332 6.74614 16.332 7.80701V10.807" stroke="#201E1E" stroke-opacity="0.4" stroke-width="1.5" stroke-linecap="round"/>
<path d="M5.33203 10.807H19.332V19.807C19.332 20.3374 19.1213 20.8461 18.7462 21.2212C18.3712 21.5963 17.8625 21.807 17.332 21.807H7.33203C6.8016 21.807 6.29289 21.5963 5.91782 21.2212C5.54274 20.8461 5.33203 20.3374 5.33203 19.807V10.807Z" stroke="#201E1E" stroke-opacity="0.4" stroke-width="1.5" stroke-linejoin="round"/>
<path d="M14.832 16.307H14.842V16.317H14.832V16.307Z" stroke="#201E1E" stroke-opacity="0.4" stroke-width="2.25" stroke-linejoin="round"/>
</svg>
