<svg width="17" height="17" viewBox="0 0 17 17" fill="none" xmlns="http://www.w3.org/2000/svg">
<path d="M16.609 15.5626C15.4207 13.5055 13.5896 12.0305 11.4526 11.3313C12.5096 10.7012 13.3309 9.74105 13.7902 8.59833C14.2496 7.45561 14.3216 6.19349 13.9953 5.0058C13.669 3.81811 12.9623 2.77051 11.9839 2.0239C11.0054 1.27728 9.80922 0.872925 8.57904 0.872925C7.34886 0.872925 6.15269 1.27728 5.17423 2.0239C4.19576 2.77051 3.48911 3.81811 3.16278 5.0058C2.83645 6.19349 2.9085 7.45561 3.36786 8.59833C3.82721 9.74105 4.64848 10.7012 5.70553 11.3313C3.56854 12.0297 1.73738 13.5047 0.549124 15.5626C0.505549 15.6337 0.476645 15.7129 0.46412 15.7954C0.451594 15.8779 0.455699 15.9621 0.476194 16.043C0.496688 16.1239 0.533157 16.1998 0.583447 16.2664C0.633738 16.333 0.696832 16.3888 0.769007 16.4305C0.841182 16.4722 0.920976 16.4991 1.00368 16.5095C1.08639 16.5198 1.17033 16.5135 1.25055 16.4909C1.33077 16.4682 1.40565 16.4297 1.47078 16.3776C1.5359 16.3255 1.58994 16.2609 1.62971 16.1876C3.09963 13.6438 5.69773 12.1251 8.57904 12.1251C11.4604 12.1251 14.0585 13.6438 15.5284 16.1876C15.5681 16.2609 15.6222 16.3255 15.6873 16.3776C15.7524 16.4297 15.8273 16.4682 15.9075 16.4909C15.9878 16.5135 16.0717 16.5198 16.1544 16.5095C16.2371 16.4991 16.3169 16.4722 16.3891 16.4305C16.4613 16.3888 16.5243 16.333 16.5746 16.2664C16.6249 16.1998 16.6614 16.1239 16.6819 16.043C16.7024 15.9621 16.7065 15.8779 16.694 15.7954C16.6814 15.7129 16.6525 15.6337 16.609 15.5626ZM4.20987 6.50005C4.20987 5.63476 4.46612 4.7889 4.94621 4.06943C5.4263 3.34997 6.10867 2.78921 6.90703 2.45808C7.70539 2.12694 8.58389 2.0403 9.43143 2.20911C10.279 2.37792 11.0575 2.7946 11.6685 3.40646C12.2796 4.01831 12.6957 4.79786 12.8643 5.64653C13.0329 6.4952 12.9463 7.37486 12.6156 8.17429C12.2849 8.97372 11.7249 9.657 11.0064 10.1377C10.2879 10.6185 9.44318 10.8751 8.57904 10.8751C7.42065 10.8738 6.31005 10.4125 5.49094 9.59227C4.67183 8.77207 4.21111 7.65999 4.20987 6.50005Z" fill="#4267B3"/>
</svg>
