<svg width="21" height="21" viewBox="0 0 21 21" fill="none" xmlns="http://www.w3.org/2000/svg">
<g clip-path="url(#clip0_391_57)">
<path d="M17.405 11.3602H15.4499C15.1838 11.3602 14.9262 11.3966 14.681 11.4636C14.1973 10.5116 13.2099 9.85742 12.0721 9.85742H8.61614C7.47832 9.85742 6.49088 10.5116 6.00723 11.4636C5.76205 11.3966 5.50443 11.3602 5.23834 11.3602H3.28321C1.66993 11.3602 0.357422 12.6745 0.357422 14.2899V17.4195C0.357422 18.3888 1.14493 19.1773 2.11289 19.1773H18.5753C19.5433 19.1773 20.3308 18.3888 20.3308 17.4195V14.2899C20.3308 12.6745 19.0183 11.3602 17.405 11.3602ZM5.69035 12.7872V18.0055H2.11289C1.79024 18.0055 1.52774 17.7427 1.52774 17.4196V14.29C1.52774 13.3207 2.31524 12.5321 3.28321 12.5321H5.23834C5.39719 12.5321 5.551 12.5538 5.69745 12.5936C5.69324 12.6577 5.69035 12.7221 5.69035 12.7872ZM13.8275 18.0055H6.86067V12.7871C6.86067 11.8179 7.64817 11.0293 8.61614 11.0293H12.0721C13.04 11.0293 13.8275 11.8179 13.8275 12.7871V18.0055ZM19.1605 17.4196C19.1605 17.7427 18.898 18.0055 18.5753 18.0055H14.9979V12.7871C14.9979 12.722 14.995 12.6576 14.9908 12.5935C15.1372 12.5538 15.291 12.5321 15.4499 12.5321H17.405C18.373 12.5321 19.1605 13.3207 19.1605 14.2899V17.4196Z" fill="#201E1E" fill-opacity="0.4"/>
<path d="M4.26103 5.82629C2.82743 5.82629 1.66113 6.99415 1.66113 8.42965C1.66109 9.86516 2.82743 11.033 4.26103 11.033C5.69458 11.033 6.86092 9.86516 6.86092 8.42965C6.86092 6.99415 5.69462 5.82629 4.26103 5.82629ZM4.26099 9.86114C3.4727 9.86114 2.83141 9.21899 2.83141 8.42965C2.83141 7.64032 3.4727 6.99817 4.26099 6.99817C5.04927 6.99817 5.69057 7.64032 5.69057 8.42965C5.69057 9.21899 5.04927 9.86114 4.26099 9.86114Z" fill="#201E1E" fill-opacity="0.4"/>
<path d="M10.3445 2.59375C8.42925 2.59375 6.87109 4.15398 6.87109 6.0718C6.87109 7.98961 8.42925 9.54984 10.3445 9.54984C12.2598 9.54984 13.8179 7.98961 13.8179 6.0718C13.8179 4.15402 12.2598 2.59375 10.3445 2.59375ZM10.3445 8.37797C9.07456 8.37797 8.04141 7.34344 8.04141 6.0718C8.04141 4.80019 9.07456 3.76562 10.3445 3.76562C11.6145 3.76562 12.6476 4.80016 12.6476 6.0718C12.6476 7.34344 11.6145 8.37797 10.3445 8.37797Z" fill="#201E1E" fill-opacity="0.4"/>
<path d="M16.427 5.82629C14.9935 5.82629 13.8271 6.99415 13.8271 8.42965C13.8272 9.86516 14.9935 11.033 16.427 11.033C17.8606 11.033 19.0269 9.86516 19.0269 8.42965C19.0269 6.99415 17.8606 5.82629 16.427 5.82629ZM16.427 9.86114C15.6388 9.86114 14.9975 9.21899 14.9975 8.42965C14.9975 7.64032 15.6388 6.99817 16.427 6.99817C17.2153 6.99817 17.8566 7.64032 17.8566 8.42965C17.8566 9.21899 17.2153 9.86114 16.427 9.86114Z" fill="#201E1E" fill-opacity="0.4"/>
</g>
<defs>
<clipPath id="clip0_391_57">
<rect width="19.9734" height="20" fill="white" transform="translate(0.357422 0.884766)"/>
</clipPath>
</defs>
</svg>
