<svg width="24" height="25" viewBox="0 0 24 25" fill="none" xmlns="http://www.w3.org/2000/svg">
<path d="M9 22.75C9.55228 22.75 10 22.3023 10 21.75C10 21.1977 9.55228 20.75 9 20.75C8.44772 20.75 8 21.1977 8 21.75C8 22.3023 8.44772 22.75 9 22.75Z" stroke="#4267B3" stroke-width="1.5" stroke-linecap="round" stroke-linejoin="round"/>
<path d="M20 22.75C20.5523 22.75 21 22.3023 21 21.75C21 21.1977 20.5523 20.75 20 20.75C19.4477 20.75 19 21.1977 19 21.75C19 22.3023 19.4477 22.75 20 22.75Z" stroke="#4267B3" stroke-width="1.5" stroke-linecap="round" stroke-linejoin="round"/>
<path d="M1 1.75H5L7.68 15.14C7.77144 15.6004 8.02191 16.014 8.38755 16.3083C8.75318 16.6026 9.2107 16.759 9.68 16.75H19.4C19.8693 16.759 20.3268 16.6026 20.6925 16.3083C21.0581 16.014 21.3086 15.6004 21.4 15.14L23 6.75H6" stroke="#4267B3" stroke-width="1.5" stroke-linecap="round" stroke-linejoin="round"/>
</svg>
