<svg width="25" height="25" viewBox="0 0 25 25" fill="none" xmlns="http://www.w3.org/2000/svg">
<path d="M0.800781 12.0254C0.800781 18.6528 6.17336 24.0254 12.8008 24.0254C19.4282 24.0254 24.8008 18.6528 24.8008 12.0254C24.8008 5.39797 19.4282 0.0253906 12.8008 0.0253906C6.17336 0.0253906 0.800781 5.39797 0.800781 12.0254Z" fill="#25D366"/>
<path fill-rule="evenodd" clip-rule="evenodd" d="M17.0008 7.75039C15.8758 6.62539 14.3758 6.02539 12.8008 6.02539C9.50078 6.02539 6.80078 8.72539 6.80078 12.0254C6.80078 13.0754 7.10079 14.1254 7.62579 15.0254L6.80078 18.0254L9.95079 17.2004C10.8508 17.6504 11.8258 17.9504 12.8008 17.9504C16.1008 17.9504 18.8008 15.2504 18.8008 11.9504C18.8008 10.3754 18.1258 8.87539 17.0008 7.75039ZM12.8008 16.9754C11.9008 16.9754 11.0008 16.7504 10.2508 16.3004L10.1008 16.2254L8.22578 16.7504L8.75079 14.9504L8.60078 14.7254C8.07578 13.9004 7.85078 13.0004 7.85078 12.1004C7.85078 9.40039 10.1008 7.15039 12.8008 7.15039C14.1508 7.15039 15.3508 7.67539 16.3258 8.57539C17.3008 9.55039 17.7508 10.7504 17.7508 12.1004C17.7508 14.7254 15.5758 16.9754 12.8008 16.9754ZM15.5008 13.2254C15.3508 13.1504 14.6008 12.7754 14.4508 12.7754C14.3008 12.7004 14.2258 12.7004 14.1508 12.8504C14.0758 13.0004 13.7758 13.3004 13.7008 13.4504C13.6258 13.5254 13.5508 13.5254 13.4008 13.5254C13.2508 13.4504 12.8008 13.3004 12.2008 12.7754C11.7508 12.4004 11.4508 11.8754 11.3758 11.7254C11.3008 11.5754 11.3758 11.5004 11.4508 11.4254C11.5258 11.3504 11.6008 11.2754 11.6758 11.2004C11.7508 11.1254 11.7508 11.0504 11.8258 10.9754C11.9008 10.9004 11.8258 10.8254 11.8258 10.7504C11.8258 10.6754 11.5258 9.92539 11.3758 9.62539C11.3008 9.40039 11.1508 9.40039 11.0758 9.40039C11.0008 9.40039 10.9258 9.40039 10.7758 9.40039C10.7008 9.40039 10.5508 9.40039 10.4008 9.55039C10.2508 9.70039 9.87579 10.0754 9.87579 10.8254C9.87579 11.5754 10.4008 12.2504 10.4758 12.4004C10.5508 12.4754 11.5258 14.0504 13.0258 14.6504C14.3008 15.1754 14.5258 15.0254 14.8258 15.0254C15.1258 15.0254 15.7258 14.6504 15.8008 14.3504C15.9508 13.9754 15.9508 13.6754 15.8758 13.6754C15.8008 13.3004 15.6508 13.3004 15.5008 13.2254Z" fill="white"/>
</svg>
