<svg width="25" height="25" viewBox="0 0 25 25" fill="none" xmlns="http://www.w3.org/2000/svg">
<path d="M24.7991 12.0258C24.7991 18.0866 20.3067 23.0971 14.4706 23.9102C13.9249 23.9859 13.3666 24.0254 12.7999 24.0254C12.1458 24.0254 11.5034 23.9733 10.8779 23.8724C5.16457 22.9525 0.800781 17.9983 0.800781 12.0258C0.800781 5.39834 6.17354 0.0253906 12.8008 0.0253906C19.428 0.0253906 24.8008 5.39834 24.8008 12.0258H24.7991Z" fill="#1C1C1B"/>
<path d="M5.66741 5.31763L11.2016 12.717L5.63293 18.7332H6.88658L11.7624 13.4662L15.7016 18.7332H19.967L14.1217 10.9176L19.3053 5.31763H18.0517L13.5617 10.1684L9.93367 5.31763H5.66824H5.66741ZM7.51045 6.24087H9.46954L18.1223 17.8099H16.1632L7.51045 6.24087Z" fill="white"/>
</svg>
